PathFileType	4	(X/Y/Z)	./resultDataOpenSim/trcMotMarkerGrf/sub06/qtm-02-06.trc
DataRate	CameraRate	NumFrames	NumMarkers	Units	OrigDataRate	OrigDataStartFrame	OrigNumFrames
250.000000	250.000000	11	24	m	250.000000	373	497
Frame#	Time	L.Toe.Tip			R.Toe.Tip			L.Ankle.Lat			R.Ankle.Lat			L.Ankle.Med			R.Ankle.Med			L.Heel			R.Heel			L.Knee.Lat			R.Knee.Lat			L.Knee.Med			R.Knee.Med			L.Thigh.Upper			R.Thigh.Upper			L.ASIS			R.ASIS			V.Sacral			L.Acromium			R.Acromium			C7			L.Elbow			R.Elbow			L.Wrist.Lat			R.Wrist.Lat
		X1	Y1	Z1	X2	Y2	Z2	X3	Y3	Z3	X4	Y4	Z4	X5	Y5	Z5	X6	Y6	Z6	X7	Y7	Z7	X8	Y8	Z8	X9	Y9	Z9	X10	Y10	Z10	X11	Y11	Z11	X12	Y12	Z12	X13	Y13	Z13	X14	Y14	Z14	X15	Y15	Z15	X16	Y16	Z16	X17	Y17	Z17	X18	Y18	Z18	X19	Y19	Z19	X20	Y20	Z20	X21	Y21	Z21	X22	Y22	Z22	X23	Y23	Z23	X24	Y24	Z24

373	1.488	1.4448335	0.11675806	-0.054941949	0.8527818	0.035019769	0.12710065	1.3180629	0.10219294	-0.068306433	0.71833774	0.068814222	0.14879343	1.322648	0.12031825	0.015052389	0.74341858	0.088216853	0.062181642	1.2656528	0.047991929	-0.017487532	0.66290249	0.052181921	0.088587679	1.2223069	0.46238727	-0.071540065	0.87914667	0.42679791	0.18254883	1.2194368	0.45187131	0.051709499	0.84997508	0.42882509	0.05329134	1.020343	0.79820711	-0.10327273	0.95849658	0.78246817	0.24078598	1.0808504	0.84434063	-0.047746433	1.0640078	0.83455338	0.20145852	0.88589835	0.90779119	0.067917665	0.9859913	1.3213656	-0.10960407	1.0028883	1.3114335	0.25284507	0.91674871	1.3515361	0.074884806	0.88345226	1.02421	-0.16360846	1.005702	0.99401175	0.34693715	0.97725782	0.80504797	-0.21882946	1.2481763	0.93673355	0.31502774
374	1.492	1.4579088	0.1202909	-0.05425966	0.85284301	0.034979501	0.1270632	1.3314567	0.10295978	-0.068096006	0.71874599	0.069562644	0.14867995	1.3355017	0.12078529	0.015547417	0.74395222	0.088771451	0.062151946	1.2800353	0.047598914	-0.018246706	0.66319977	0.053353232	0.088476336	1.2281062	0.45993185	-0.070774367	0.88304006	0.42608382	0.18235406	1.2250858	0.4492874	0.05286259	0.85401872	0.42843378	0.053123037	1.0268049	0.79641172	-0.10339382	0.96437504	0.78106968	0.24041186	1.0875545	0.84270423	-0.047878164	1.0701848	0.83284701	0.2010703	0.89228238	0.90628888	0.06695757	0.99203327	1.3196135	-0.1100022	1.0090599	1.3098548	0.25255779	0.92284683	1.3500261	0.074534805	0.88916244	1.0227122	-0.16356237	1.0129744	0.99243771	0.3468954	0.98098917	0.8031172	-0.21971043	1.2554735	0.93663175	0.31402824
375	1.496	1.4703736	0.12359633	-0.053490746	0.8529076	0.034936056	0.12701968	1.3442283	0.1038093	-0.067910346	0.71919225	0.070367052	0.14861926	1.3476128	0.12116386	0.015871834	0.74444081	0.089398476	0.062213849	1.2937994	0.047296384	-0.018958467	0.66349899	0.054638673	0.088455807	1.2340513	0.45763288	-0.069898178	0.88706273	0.42535991	0.18215906	1.2308479	0.44684703	0.054078987	0.85821817	0.42801682	0.052944158	1.033364	0.79461933	-0.10353008	0.97044821	0.77972821	0.2401701	1.0943114	0.84108668	-0.048013551	1.0764114	0.83112681	0.20069505	0.89851432	0.90482997	0.06540926	0.99810535	1.3178803	-0.11042222	1.0152469	1.3082909	0.25223818	0.92896316	1.3485263	0.074157493	0.89494597	1.0212172	-0.16352402	1.0202168	0.99088694	0.34681977	0.98480646	0.80120503	-0.22056153	1.2627528	0.93644783	0.31298902
376	1.5	1.4822187	0.12667338	-0.052713495	0.85296891	0.034912023	0.12698646	1.3563601	0.10468927	-0.067704757	0.71969271	0.071228689	0.14861548	1.3587966	0.12140199	0.016003231	0.74498271	0.090075356	0.062293043	1.3068726	0.047039842	-0.019591497	0.66381518	0.056049913	0.088514735	1.2401449	0.45554235	-0.068914947	0.89121776	0.42461737	0.18196415	1.2367103	0.4446199	0.055324183	0.86260883	0.42756328	0.052723855	1.0400511	0.79285812	-0.10371388	0.97675867	0.77847761	0.24010875	1.1011245	0.83949267	-0.048153073	1.0827709	0.82941049	0.20035587	0.90462103	0.90340829	0.063790729	1.0042018	1.3161749	-0.11086747	1.0214521	1.306748	0.25188523	0.93509197	1.3470347	0.073757686	0.9008016	1.019741	-0.16348209	1.0274147	0.98935876	0.34670206	0.98872369	0.79931526	-0.22138276	1.2700262	0.93617883	0.31191006
377	1.504	1.4934193	0.12947594	-0.052006757	0.85300068	0.034952967	0.12700318	1.3678434	0.10553403	-0.067437252	0.72028115	0.072145719	0.14867297	1.3691335	0.12155933	0.016094234	0.74563924	0.09078749	0.062344152	1.3191705	0.046781486	-0.020052242	0.66416639	0.05759463	0.088638633	1.2463781	0.45368821	-0.067850792	0.895503	0.42384746	0.18177273	1.2426592	0.44266255	0.056552335	0.86722722	0.42705811	0.052447796	1.0468749	0.79114827	-0.10395842	0.98318441	0.77729094	0.24009487	1.1079978	0.83792681	-0.048297803	1.0894252	0.82772087	0.19998656	0.91075776	0.90199758	0.062786621	1.0103153	1.314504	-0.11133558	1.0276736	1.3052309	0.25149885	0.94123003	1.3455513	0.073350546	0.90672922	1.0182812	-0.16343038	1.0345621	0.98785729	0.34653871	0.99274835	0.7974519	-0.22217411	1.2772706	0.93581612	0.31084781
378	1.508	1.5039258	0.13195303	-0.051435575	0.852997	0.035093526	0.12708279	1.3786577	0.10627079	-0.067063582	0.72097119	0.073132209	0.14880026	1.3788628	0.12175487	0.016335984	0.74639379	0.091551701	0.06238922	1.3306702	0.046486593	-0.020262716	0.6645639	0.059276215	0.088822882	1.2527326	0.45207453	-0.066745571	0.89991621	0.42304965	0.18159093	1.2486698	0.44100201	0.057723968	0.87206847	0.42648217	0.052139666	1.0538211	0.78949264	-0.10424163	0.98953091	0.77609182	0.23991835	1.1149354	0.83639385	-0.048448987	1.0965137	0.82607809	0.19950819	0.91708864	0.90059443	0.062410932	1.0164452	1.3128719	-0.11182696	1.0339082	1.3037443	0.25108021	0.94738164	1.3440878	0.072950169	0.91272929	1.0168313	-0.16337137	1.0416554	0.98638361	0.34632462	0.99688142	0.79561999	-0.22293666	1.2844479	0.93535915	0.30986274
379	1.512	1.5137166	0.1340422	-0.051003461	0.85299472	0.035293946	0.12718462	1.388782	0.10682673	-0.066542004	0.72174442	0.074211327	0.14899935	1.38818	0.12197933	0.016823936	0.74720325	0.092398489	0.062476628	1.3414056	0.046120924	-0.020189737	0.6650101	0.06109368	0.089071452	1.2591852	0.45068878	-0.065640127	0.90446305	0.42223941	0.18142076	1.254711	0.43963458	0.058812428	0.87706975	0.42582964	0.051850348	1.0608702	0.78789025	-0.10453228	0.99574037	0.77484002	0.23952133	1.1219411	0.83489939	-0.048605971	1.1039305	0.82450637	0.19892802	0.92365941	0.89923836	0.062095093	1.0226006	1.3112809	-0.11235021	1.0401594	1.3022932	0.25063137	0.95356124	1.3426563	0.072543783	0.9188031	1.0153944	-0.163312	1.0486829	0.98493152	0.34604519	1.0011215	0.79382537	-0.22366961	1.2915336	0.93481459	0.3089452
380	1.516	1.5228471	0.13565637	-0.050641264	0.853041	0.035454936	0.12725893	1.3982302	0.10713521	-0.065855887	0.72259935	0.075376152	0.14926177	1.3971586	0.12208183	0.017554699	0.74805371	0.093347804	0.062628129	1.3514177	0.045628139	-0.019755629	0.66550594	0.063043264	0.089386717	1.2657151	0.44950167	-0.064575768	0.90915471	0.42144255	0.1812621	1.2607655	0.43853248	0.059803477	0.88216026	0.42512188	0.051626056	1.0680151	0.78635569	-0.10481977	1.0018906	0.77355888	0.23898984	1.1290152	0.83345041	-0.04876231	1.1113519	0.82302719	0.19834144	0.9304197	0.89796749	0.061477941	1.0287904	1.3097314	-0.11291405	1.0464312	1.3008806	0.25015318	0.95978073	1.3412607	0.072096172	0.92495029	1.0139806	-0.16325862	1.0556338	0.98349921	0.34569042	1.0054711	0.79207187	-0.22437	1.2985216	0.93418774	0.30802849
381	1.52	1.5313924	0.13671361	-0.050265838	0.85315726	0.035517778	0.12729326	1.4070306	0.10714044	-0.065008378	0.72358402	0.076583453	0.14958168	1.4057565	0.1219351	0.01848647	0.7489573	0.094408928	0.06283842	1.3607341	0.04493011	-0.018797961	0.66605692	0.065125323	0.089767499	1.2723111	0.44846518	-0.063597797	0.91399523	0.42067518	0.18112114	1.2668434	0.43765213	0.060693667	0.88731836	0.4243939	0.051482537	1.0752542	0.78491385	-0.10510806	1.0080615	0.77228662	0.23840657	1.136149	0.83205371	-0.048903622	1.1185424	0.821637	0.19784378	0.93732426	0.89677321	0.060616947	1.0350162	1.308224	-0.11351843	1.052725	1.2995085	0.24964591	0.96603922	1.3399031	0.071584958	0.93117253	1.012598	-0.16320763	1.062508	0.98209778	0.34527312	1.0099362	0.79035932	-0.22503645	1.3054118	0.93348275	0.30707449
382	1.524	1.5393784	0.1371676	-0.049832257	0.85333601	0.035497648	0.12730769	1.4151958	0.10679853	-0.06400132	0.72471783	0.077817446	0.14994913	1.4138753	0.12150739	0.01957591	0.7499252	0.095583404	0.063102247	1.3693727	0.043951294	-0.017183947	0.66666967	0.06734857	0.090214313	1.2789724	0.44751984	-0.062744245	0.9189787	0.41993674	0.18100935	1.2729775	0.43694372	0.061487322	0.89257149	0.42366778	0.051407673	1.0825788	0.78357796	-0.10540014	1.0142884	0.77104544	0.23781483	1.1433256	0.83071003	-0.049017376	1.1254613	0.82030857	0.19749558	0.94436857	0.89561914	0.059655511	1.041279	1.3067621	-0.11415748	1.0590453	1.2981816	0.24911244	0.97233293	1.3385861	0.071013454	0.9374781	1.0112499	-0.16314175	1.0693174	0.98074695	0.34482334	1.0145186	0.7886859	-0.22566949	1.312207	0.93270457	0.30609769
383	1.528	1.5467932	0.13700748	-0.049324137	0.85355186	0.035433651	0.12733525	1.4227343	0.10607811	-0.062835462	0.72589678	0.079147122	0.15032487	1.4214341	0.12080906	0.020783914	0.7509604	0.096866088	0.063423846	1.3773253	0.042675653	-0.015029788	0.66735132	0.069725322	0.090728282	1.2856992	0.44660895	-0.062022826	0.92409725	0.41922188	0.18093628	1.2791992	0.43635648	0.06219285	0.89795092	0.42294898	0.051385838	1.0899741	0.78234534	-0.10569815	1.0205576	0.76984644	0.23724583	1.1505345	0.82940908	-0.049118208	1.132132	0.81901617	0.19734627	0.95154087	0.89448851	0.058672612	1.0475827	1.3053518	-0.11482449	1.0653981	1.2969067	0.2485559	0.97866512	1.3373099	0.070395003	0.94386897	1.0099391	-0.16304924	1.0760726	0.97946067	0.34435967	1.0192141	0.78705417	-0.22626978	1.3189124	0.93185444	0.3051249
